<?xml version="1.0" encoding="UTF-8"?>
<svg width="50px" height="50px" viewBox="0 0 50 50" version="1.1" xmlns="http://www.w3.org/2000/svg" xmlns:xlink="http://www.w3.org/1999/xlink">
    <!-- Generator: Sketch 50.2 (55047) - http://www.bohemiancoding.com/sketch -->
    <title>megaphone</title>
    <desc>Created with Sketch.</desc>
    <defs></defs>
    <g id="megaphone" stroke="none" stroke-width="1" fill="none" fill-rule="evenodd">
        <g id="Group" transform="translate(11.000000, 12.000000)" stroke="#222222" stroke-width="2">
            <path d="M6.03198969,6.44896835 C10.8528736,6.60325969 14.0258448,6.42520188 15.5509033,5.91479492 C17.0420272,5.41574525 20.3306363,3.76528036 25.4167307,0.96340027 L25.4167094,0.963361734 C25.9004694,0.696863043 26.5086743,0.872988128 26.775173,1.35674812 C26.8565938,1.50454677 26.899292,1.67054489 26.899292,1.83928669 L26.8992824,20.7975459 C26.8992824,21.2393684 26.5411145,21.5975363 26.099292,21.5975363 C25.939177,21.5975363 25.7827458,21.54949 25.6502356,21.4596131 C20.4580693,17.9379537 17.0916252,16.177124 15.5509033,16.177124 C12.3672689,16.177124 9.18363444,16.177124 6,16.177124 L6,16.177124 C5.44771525,16.177124 5,15.7294088 5,15.177124 L4.99995971,7.44849686 C4.99995971,6.89618986 5.447693,6.44845657 6,6.44845657 C6.01066528,6.44845657 6.02132987,6.44862718 6.03198969,6.44896835 Z" id="Path-20"></path>
            <path d="M7,16.1878967 L9.89437912,25.5019556 C10.0243499,25.9201992 10.41136,26.2052002 10.8493326,26.2052002 L13.9186871,26.2052002 C14.4709719,26.2052002 14.9186871,25.7574849 14.9186871,25.2052002 C14.9186871,25.1240162 14.908801,25.0431342 14.889247,24.9643403 L13.2923679,18.5296176 C13.2355249,18.3005651 13.2615234,18.0587895 13.3657645,17.8470587 L14.1826172,16.1878967 L7,16.1878967 Z" id="Path-21"></path>
            <path d="M4.99995971,8 L1,8 C0.44771525,8 -6.76353751e-17,8.44771525 0,9 L0,13.4934543 C6.76353751e-17,14.045739 0.44771525,14.4934543 1,14.4934543 L4.99995971,14.4934543 L4.99995971,8 Z" id="Path-23"></path>
        </g>
    </g>
</svg>